# xmcd
#
# Track frame offsets:
#	150
#	17349
#	32338
#	47081
#	62572
#	77486
#	91195
#	103729
#	118705
#	136406
#	151437
#	166485
#	183618
#	198621
#	213708
#	230208
#	250348
#
# Disc length: 3598 seconds
#
# Revision: 2
# Processed by: cddbd v1.5.2PL0 Copyright (c) Steve Scherf et al.
# Submitted via: audiograbber 1.83.01
#
DISCID=e80e0c11
DTITLE=Fantasy - Eine Nacht im Paradies
DYEAR=2014
DGENRE=Schlager
TTITLE0=Eine Nacht im Paradies
TTITLE1=Ich hab im Regen Deine Tränen nicht gesehen
TTITLE2=Wer will uns die Liebe verbieten
TTITLE3=Wenn die Sehnsucht nach mir in Dir brennt
TTITLE4=Ein Herz tanzt allein
TTITLE5=Dort oben in den Bergen
TTITLE6=R.I.O. - Es geht nach Rio de Janeiro
TTITLE7=Dein Engel
TTITLE8=Darling
TTITLE9=Ich kann ohne Dich
TTITLE10=Da ist noch ein Feuer
TTITLE11=Ein kleiner Teddybär
TTITLE12=Ein weisses Boot (Rio-Remix)
TTITLE13=Eine Nacht im Paradies (Remix)
TTITLE14=Darling (Remix)
TTITLE15=Darling (Extended Remix)
TTITLE16=Paradies Medley
EXTD=
EXTT0=
EXTT1=
EXTT2=
EXTT3=
EXTT4=
EXTT5=
EXTT6=
EXTT7=
EXTT8=
EXTT9=
EXTT10=
EXTT11=
EXTT12=
EXTT13=
EXTT14=
EXTT15=
EXTT16=
PLAYORDER=
